<?xml version="1.0" standalone="no"?>
<!DOCTYPE svg PUBLIC "-//W3C//DTD SVG 20010904//EN"
 "http://www.w3.org/TR/2001/REC-SVG-20010904/DTD/svg10.dtd">
<svg version="1.0" xmlns="http://www.w3.org/2000/svg"
 width="300.000000pt" height="300.000000pt" viewBox="0 0 300.000000 300.000000"
 preserveAspectRatio="xMidYMid meet">
<metadata>
Created by potrace 1.14, written by Peter Selinger 2001-2017
</metadata>
<g transform="translate(0.000000,300.000000) scale(0.100000,-0.100000)"
fill="#000000" stroke="none">
<path d="M1018 2351 c-147 -47 -255 -160 -294 -306 -29 -106 -9 -239 49 -337
14 -24 104 -121 199 -216 l174 -172 180 182 c199 201 224 238 246 366 29 173
-58 354 -217 447 -91 54 -233 69 -337 36z m213 -285 c49 -33 73 -86 67 -146
-9 -86 -70 -140 -161 -140 -150 0 -205 202 -77 287 47 32 123 31 171 -1z"/>
<path d="M1771 1649 c-221 -43 -382 -273 -344 -492 21 -123 49 -165 250 -367
l183 -185 174 175 c149 152 178 186 210 252 159 321 -121 686 -473 617z m156
-286 c99 -47 114 -193 27 -262 -104 -82 -254 -11 -254 120 0 115 122 192 227
142z"/>
</g>
</svg>
